<?xml version="1.0" encoding="UTF-8" standalone="no"?>
<!DOCTYPE svg PUBLIC "-//W3C//DTD SVG 1.1//EN"
 "http://www.w3.org/Graphics/SVG/1.1/DTD/svg11.dtd">
<!-- Generated by graphviz version 14.1.2 (0)
 -->
<!-- Title: KorpusUproszczony Pages: 1 -->
<svg width="457pt" height="990pt"
 viewBox="0.00 0.00 457.00 990.00" xmlns="http://www.w3.org/2000/svg" xmlns:xlink="http://www.w3.org/1999/xlink">
<g id="graph0" class="graph" transform="scale(1 1) rotate(0) translate(61.2 928.38)">
<title>KorpusUproszczony</title>
<polygon fill="white" stroke="none" points="-61.2,61.2 -61.2,-928.38 395.7,-928.38 395.7,61.2 -61.2,61.2"/>
<!-- title -->
<g id="node1" class="node">
<title>title</title>
<path fill="#f8fafc" stroke="none" d="M326,-867.18C326,-867.18 8.5,-867.18 8.5,-867.18 4.25,-867.18 0,-862.93 0,-858.68 0,-858.68 0,-850.18 0,-850.18 0,-845.93 4.25,-841.68 8.5,-841.68 8.5,-841.68 326,-841.68 326,-841.68 330.25,-841.68 334.5,-845.93 334.5,-850.18 334.5,-850.18 334.5,-858.68 334.5,-858.68 334.5,-862.93 330.25,-867.18 326,-867.18"/>
<text xml:space="preserve" text-anchor="middle" x="167.25" y="-846.28" font-family="Arial" font-size="22.00" fill="#000000">Tworzenie korpusu referencyjnego</text>
</g>
<!-- upload -->
<g id="node2" class="node">
<title>upload</title>
<path fill="#e0f2fe" stroke="#334155" d="M264.96,-758.68C264.96,-758.68 69.54,-758.68 69.54,-758.68 63.54,-758.68 57.54,-752.68 57.54,-746.68 57.54,-746.68 57.54,-708.4 57.54,-708.4 57.54,-702.4 63.54,-696.4 69.54,-696.4 69.54,-696.4 264.96,-696.4 264.96,-696.4 270.96,-696.4 276.96,-702.4 276.96,-708.4 276.96,-708.4 276.96,-746.68 276.96,-746.68 276.96,-752.68 270.96,-758.68 264.96,-758.68"/>
<text xml:space="preserve" text-anchor="middle" x="167.25" y="-737.69" font-family="Arial" font-size="13.00" fill="#0f172a">1. Badacz dodaje tekst źródłowy</text>
<text xml:space="preserve" text-anchor="middle" x="167.25" y="-722.69" font-family="Arial" font-size="13.00" fill="#0f172a">plik DOCX, PDF albo TXT</text>
<text xml:space="preserve" text-anchor="middle" x="167.25" y="-707.69" font-family="Arial" font-size="13.00" fill="#0f172a">+ tytuł i autor</text>
</g>
<!-- title&#45;&gt;upload -->
<!-- read_text -->
<g id="node3" class="node">
<title>read_text</title>
<path fill="#f8fafc" stroke="#334155" d="M249.21,-613.4C249.21,-613.4 85.29,-613.4 85.29,-613.4 79.29,-613.4 73.29,-607.4 73.29,-601.4 73.29,-601.4 73.29,-578.12 73.29,-578.12 73.29,-572.12 79.29,-566.12 85.29,-566.12 85.29,-566.12 249.21,-566.12 249.21,-566.12 255.21,-566.12 261.21,-572.12 261.21,-578.12 261.21,-578.12 261.21,-601.4 261.21,-601.4 261.21,-607.4 255.21,-613.4 249.21,-613.4"/>
<text xml:space="preserve" text-anchor="middle" x="167.25" y="-592.41" font-family="Arial" font-size="13.00" fill="#0f172a">2. Aplikacja odczytuje treść</text>
<text xml:space="preserve" text-anchor="middle" x="167.25" y="-577.41" font-family="Arial" font-size="13.00" fill="#0f172a">z przesłanego pliku</text>
</g>
<!-- upload&#45;&gt;read_text -->
<g id="edge2" class="edge">
<title>upload&#45;&gt;read_text</title>
<path fill="none" stroke="#475569" d="M167.25,-696.07C167.25,-674.27 167.25,-645 167.25,-622.84"/>
<polygon fill="#475569" stroke="#475569" points="170.05,-623.04 167.25,-615.04 164.45,-623.04 170.05,-623.04"/>
</g>
<!-- split_text -->
<g id="node4" class="node">
<title>split_text</title>
<path fill="#f8fafc" stroke="#334155" d="M230.46,-483.12C230.46,-483.12 104.04,-483.12 104.04,-483.12 98.04,-483.12 92.04,-477.12 92.04,-471.12 92.04,-471.12 92.04,-447.84 92.04,-447.84 92.04,-441.84 98.04,-435.84 104.04,-435.84 104.04,-435.84 230.46,-435.84 230.46,-435.84 236.46,-435.84 242.46,-441.84 242.46,-447.84 242.46,-447.84 242.46,-471.12 242.46,-471.12 242.46,-477.12 236.46,-483.12 230.46,-483.12"/>
<text xml:space="preserve" text-anchor="middle" x="167.25" y="-462.13" font-family="Arial" font-size="13.00" fill="#0f172a">3. Tekst jest dzielony</text>
<text xml:space="preserve" text-anchor="middle" x="167.25" y="-447.13" font-family="Arial" font-size="13.00" fill="#0f172a">na krótkie fragmenty</text>
</g>
<!-- read_text&#45;&gt;split_text -->
<g id="edge3" class="edge">
<title>read_text&#45;&gt;split_text</title>
<path fill="none" stroke="#475569" d="M167.25,-565.83C167.25,-545.4 167.25,-515.29 167.25,-492.49"/>
<polygon fill="#475569" stroke="#475569" points="170.05,-492.73 167.25,-484.73 164.45,-492.73 170.05,-492.73"/>
</g>
<!-- embeddings -->
<g id="node5" class="node">
<title>embeddings</title>
<path fill="#ede9fe" stroke="#334155" d="M278.46,-352.84C278.46,-352.84 56.04,-352.84 56.04,-352.84 50.04,-352.84 44.04,-346.84 44.04,-340.84 44.04,-340.84 44.04,-302.56 44.04,-302.56 44.04,-296.56 50.04,-290.56 56.04,-290.56 56.04,-290.56 278.46,-290.56 278.46,-290.56 284.46,-290.56 290.46,-296.56 290.46,-302.56 290.46,-302.56 290.46,-340.84 290.46,-340.84 290.46,-346.84 284.46,-352.84 278.46,-352.84"/>
<text xml:space="preserve" text-anchor="middle" x="167.25" y="-331.85" font-family="Arial" font-size="13.00" fill="#0f172a">4. Dla każdego fragmentu</text>
<text xml:space="preserve" text-anchor="middle" x="167.25" y="-316.85" font-family="Arial" font-size="13.00" fill="#0f172a">powstaje reprezentacja znaczeniowa</text>
<text xml:space="preserve" text-anchor="middle" x="167.25" y="-301.85" font-family="Arial" font-size="13.00" fill="#0f172a">(embedding)</text>
</g>
<!-- split_text&#45;&gt;embeddings -->
<g id="edge4" class="edge">
<title>split_text&#45;&gt;embeddings</title>
<path fill="none" stroke="#475569" d="M167.25,-435.45C167.25,-415.5 167.25,-386.19 167.25,-362.46"/>
<polygon fill="#475569" stroke="#475569" points="170.05,-362.52 167.25,-354.52 164.45,-362.52 170.05,-362.52"/>
</g>
<!-- save_corpus -->
<g id="node6" class="node">
<title>save_corpus</title>
<path fill="#dcfce7" stroke="#334155" d="M250.71,-207.56C250.71,-207.56 83.79,-207.56 83.79,-207.56 77.79,-207.56 71.79,-201.56 71.79,-195.56 71.79,-195.56 71.79,-157.28 71.79,-157.28 71.79,-151.28 77.79,-145.28 83.79,-145.28 83.79,-145.28 250.71,-145.28 250.71,-145.28 256.71,-145.28 262.71,-151.28 262.71,-157.28 262.71,-157.28 262.71,-195.56 262.71,-195.56 262.71,-201.56 256.71,-207.56 250.71,-207.56"/>
<text xml:space="preserve" text-anchor="middle" x="167.25" y="-186.57" font-family="Arial" font-size="13.00" fill="#0f172a">5. Korpus zostaje zapisany</text>
<text xml:space="preserve" text-anchor="middle" x="167.25" y="-171.57" font-family="Arial" font-size="13.00" fill="#0f172a">tekst, metadane i fragmenty</text>
<text xml:space="preserve" text-anchor="middle" x="167.25" y="-156.57" font-family="Arial" font-size="13.00" fill="#0f172a">do późniejszych porównań</text>
</g>
<!-- embeddings&#45;&gt;save_corpus -->
<g id="edge5" class="edge">
<title>embeddings&#45;&gt;save_corpus</title>
<path fill="none" stroke="#475569" d="M167.25,-290.31C167.25,-268.94 167.25,-240.14 167.25,-216.98"/>
<polygon fill="#475569" stroke="#475569" points="170.05,-217.28 167.25,-209.28 164.45,-217.28 170.05,-217.28"/>
</g>
<!-- manage -->
<g id="node7" class="node">
<title>manage</title>
<path fill="#fef3c7" stroke="#334155" d="M267.21,-62.28C267.21,-62.28 67.29,-62.28 67.29,-62.28 61.29,-62.28 55.29,-56.28 55.29,-50.28 55.29,-50.28 55.29,-12 55.29,-12 55.29,-6 61.29,0 67.29,0 67.29,0 267.21,0 267.21,0 273.21,0 279.21,-6 279.21,-12 279.21,-12 279.21,-50.28 279.21,-50.28 279.21,-56.28 273.21,-62.28 267.21,-62.28"/>
<text xml:space="preserve" text-anchor="middle" x="167.25" y="-41.29" font-family="Arial" font-size="13.00" fill="#0f172a">6. Badacz może później</text>
<text xml:space="preserve" text-anchor="middle" x="167.25" y="-26.29" font-family="Arial" font-size="13.00" fill="#0f172a">przeglądać, poprawiać metadane</text>
<text xml:space="preserve" text-anchor="middle" x="167.25" y="-11.29" font-family="Arial" font-size="13.00" fill="#0f172a">albo usuwać teksty z korpusu</text>
</g>
<!-- save_corpus&#45;&gt;manage -->
<g id="edge6" class="edge">
<title>save_corpus&#45;&gt;manage</title>
<path fill="none" stroke="#475569" d="M167.25,-145.03C167.25,-123.66 167.25,-94.86 167.25,-71.7"/>
<polygon fill="#475569" stroke="#475569" points="170.05,-72 167.25,-64 164.45,-72 170.05,-72"/>
</g>
</g>
</svg>
