<?xml version="1.0" encoding="UTF-8" standalone="no"?>
<!DOCTYPE svg PUBLIC "-//W3C//DTD SVG 1.1//EN"
 "http://www.w3.org/Graphics/SVG/1.1/DTD/svg11.dtd">
<!-- Generated by graphviz version 14.1.2 (0)
 -->
<!-- Title: AnalizaUproszczona Pages: 1 -->
<svg width="695pt" height="1444pt"
 viewBox="0.00 0.00 695.00 1444.00" xmlns="http://www.w3.org/2000/svg" xmlns:xlink="http://www.w3.org/1999/xlink">
<g id="graph0" class="graph" transform="scale(1 1) rotate(0) translate(61.2 1382.44)">
<title>AnalizaUproszczona</title>
<polygon fill="white" stroke="none" points="-61.2,61.2 -61.2,-1382.44 633.62,-1382.44 633.62,61.2 -61.2,61.2"/>
<!-- title -->
<g id="node1" class="node">
<title>title</title>
<path fill="#f8fafc" stroke="none" d="M555.96,-1321.24C555.96,-1321.24 74.21,-1321.24 74.21,-1321.24 69.96,-1321.24 65.71,-1316.99 65.71,-1312.74 65.71,-1312.74 65.71,-1304.24 65.71,-1304.24 65.71,-1299.99 69.96,-1295.74 74.21,-1295.74 74.21,-1295.74 555.96,-1295.74 555.96,-1295.74 560.21,-1295.74 564.46,-1299.99 564.46,-1304.24 564.46,-1304.24 564.46,-1312.74 564.46,-1312.74 564.46,-1316.99 560.21,-1321.24 555.96,-1321.24"/>
<text xml:space="preserve" text-anchor="middle" x="315.09" y="-1300.34" font-family="Arial" font-size="22.00" fill="#000000">Analiza tekstu i wykrywanie możliwych zapożyczeń</text>
</g>
<!-- input -->
<g id="node2" class="node">
<title>input</title>
<path fill="#e0f2fe" stroke="#334155" d="M470.55,-1210.74C470.55,-1210.74 159.62,-1210.74 159.62,-1210.74 153.62,-1210.74 147.63,-1204.74 147.63,-1198.74 147.63,-1198.74 147.63,-1160.46 147.63,-1160.46 147.63,-1154.46 153.63,-1148.46 159.63,-1148.46 159.63,-1148.46 470.55,-1148.46 470.55,-1148.46 476.55,-1148.46 482.55,-1154.46 482.55,-1160.46 482.55,-1160.46 482.55,-1198.74 482.55,-1198.74 482.55,-1204.74 476.55,-1210.74 470.55,-1210.74"/>
<text xml:space="preserve" text-anchor="middle" x="315.09" y="-1189.75" font-family="Arial" font-size="13.00" fill="#0f172a">1. Wprowadzanie tekstu do analizy</text>
<text xml:space="preserve" text-anchor="middle" x="315.09" y="-1174.75" font-family="Arial" font-size="13.00" fill="#0f172a"> &#45; wklejenie tekstu ze schowka albo wskazanie pliku</text>
<text xml:space="preserve" text-anchor="middle" x="315.09" y="-1159.75" font-family="Arial" font-size="13.00" fill="#0f172a">DOCX, PDF lub TXT</text>
</g>
<!-- title&#45;&gt;input -->
<!-- split -->
<g id="node3" class="node">
<title>split</title>
<path fill="#f8fafc" stroke="#334155" d="M443.55,-1063.46C443.55,-1063.46 186.62,-1063.46 186.62,-1063.46 180.62,-1063.46 174.63,-1057.46 174.63,-1051.46 174.63,-1051.46 174.63,-1013.18 174.63,-1013.18 174.63,-1007.18 180.63,-1001.18 186.63,-1001.18 186.63,-1001.18 443.55,-1001.18 443.55,-1001.18 449.55,-1001.18 455.55,-1007.18 455.55,-1013.18 455.55,-1013.18 455.55,-1051.46 455.55,-1051.46 455.55,-1057.46 449.55,-1063.46 443.55,-1063.46"/>
<text xml:space="preserve" text-anchor="middle" x="315.09" y="-1042.47" font-family="Arial" font-size="13.00" fill="#0f172a">2. Aplikacja dzieli tekst</text>
<text xml:space="preserve" text-anchor="middle" x="315.09" y="-1027.47" font-family="Arial" font-size="13.00" fill="#0f172a">na krótkie zachodzące na siebie fragmenty</text>
<text xml:space="preserve" text-anchor="middle" x="315.09" y="-1012.47" font-family="Arial" font-size="13.00" fill="#0f172a">(okna tekstowe np. po 50 słów)</text>
</g>
<!-- input&#45;&gt;split -->
<g id="edge2" class="edge">
<title>input&#45;&gt;split</title>
<path fill="none" stroke="#475569" d="M315.09,-1148.14C315.09,-1126.35 315.09,-1096.81 315.09,-1073.15"/>
<polygon fill="#475569" stroke="#475569" points="317.89,-1073.25 315.09,-1065.25 312.29,-1073.25 317.89,-1073.25"/>
</g>
<!-- search -->
<g id="node4" class="node">
<title>search</title>
<path fill="#ede9fe" stroke="#334155" d="M470.55,-916.18C470.55,-916.18 159.62,-916.18 159.62,-916.18 153.62,-916.18 147.63,-910.18 147.63,-904.18 147.63,-904.18 147.63,-835.9 147.63,-835.9 147.63,-829.9 153.63,-823.9 159.63,-823.9 159.63,-823.9 470.55,-823.9 470.55,-823.9 476.55,-823.9 482.55,-829.9 482.55,-835.9 482.55,-835.9 482.55,-904.18 482.55,-904.18 482.55,-910.18 476.55,-916.18 470.55,-916.18"/>
<text xml:space="preserve" text-anchor="middle" x="315.09" y="-895.19" font-family="Arial" font-size="13.00" fill="#0f172a">3. Dla każdego fragmentu</text>
<text xml:space="preserve" text-anchor="middle" x="315.09" y="-880.19" font-family="Arial" font-size="13.00" fill="#0f172a">aplikacja szuka podobnych miejsc</text>
<text xml:space="preserve" text-anchor="middle" x="315.09" y="-865.19" font-family="Arial" font-size="13.00" fill="#0f172a">w korpusie porównawczym</text>
<text xml:space="preserve" text-anchor="middle" x="315.09" y="-850.19" font-family="Arial" font-size="13.00" fill="#0f172a">przeszukując bazę wektorową ChromaDB</text>
<text xml:space="preserve" text-anchor="middle" x="315.09" y="-835.19" font-family="Arial" font-size="13.00" fill="#0f172a">zwraca najbardziej podobne fragmenty referencyjne</text>
</g>
<!-- split&#45;&gt;search -->
<g id="edge3" class="edge">
<title>split&#45;&gt;search</title>
<path fill="none" stroke="#475569" d="M315.09,-1000.8C315.09,-979.69 315.09,-951.03 315.09,-926"/>
<polygon fill="#475569" stroke="#475569" points="317.89,-926.13 315.09,-918.13 312.29,-926.13 317.89,-926.13"/>
</g>
<!-- llm -->
<g id="node5" class="node">
<title>llm</title>
<path fill="#fef3c7" stroke="#334155" d="M431.92,-738.9C431.92,-738.9 198.25,-738.9 198.25,-738.9 192.25,-738.9 186.25,-732.9 186.25,-726.9 186.25,-726.9 186.25,-673.62 186.25,-673.62 186.25,-667.62 192.25,-661.62 198.25,-661.62 198.25,-661.62 431.92,-661.62 431.92,-661.62 437.92,-661.62 443.92,-667.62 443.92,-673.62 443.92,-673.62 443.92,-726.9 443.92,-726.9 443.92,-732.9 437.92,-738.9 431.92,-738.9"/>
<text xml:space="preserve" text-anchor="middle" x="315.09" y="-717.91" font-family="Arial" font-size="13.00" fill="#0f172a">4. Model językowy ocenia kandydatów,</text>
<text xml:space="preserve" text-anchor="middle" x="315.09" y="-702.91" font-family="Arial" font-size="13.00" fill="#0f172a">czy podobieństwo jest zapożyczeniem,</text>
<text xml:space="preserve" text-anchor="middle" x="315.09" y="-687.91" font-family="Arial" font-size="13.00" fill="#0f172a">a nie tylko wspólnym cytatem</text>
<text xml:space="preserve" text-anchor="middle" x="315.09" y="-672.91" font-family="Arial" font-size="13.00" fill="#0f172a">lub ogólnym tematem</text>
</g>
<!-- search&#45;&gt;llm -->
<g id="edge4" class="edge">
<title>search&#45;&gt;llm</title>
<path fill="none" stroke="#475569" d="M315.09,-823.64C315.09,-800.44 315.09,-772.22 315.09,-748.73"/>
<polygon fill="#475569" stroke="#475569" points="317.89,-748.83 315.09,-740.83 312.29,-748.83 317.89,-748.83"/>
</g>
<!-- classify -->
<g id="node6" class="node">
<title>classify</title>
<path fill="#ffedd5" stroke="#334155" d="M271.17,-564.12C271.17,-564.12 87,-564.12 87,-564.12 81,-564.12 75,-558.12 75,-552.12 75,-552.12 75,-498.84 75,-498.84 75,-492.84 81,-486.84 87,-486.84 87,-486.84 271.17,-486.84 271.17,-486.84 277.17,-486.84 283.17,-492.84 283.17,-498.84 283.17,-498.84 283.17,-552.12 283.17,-552.12 283.17,-558.12 277.17,-564.12 271.17,-564.12"/>
<text xml:space="preserve" text-anchor="middle" x="179.09" y="-543.13" font-family="Arial" font-size="13.00" fill="#0f172a">5. Jeśli model uzna zależność,</text>
<text xml:space="preserve" text-anchor="middle" x="179.09" y="-528.13" font-family="Arial" font-size="13.00" fill="#0f172a">określa jej typ:</text>
<text xml:space="preserve" text-anchor="middle" x="179.09" y="-513.13" font-family="Arial" font-size="13.00" fill="#0f172a">cytat, częściowy cytat,</text>
<text xml:space="preserve" text-anchor="middle" x="179.09" y="-498.13" font-family="Arial" font-size="13.00" fill="#0f172a">parafraza albo aluzja</text>
</g>
<!-- llm&#45;&gt;classify -->
<g id="edge5" class="edge">
<title>llm&#45;&gt;classify</title>
<path fill="none" stroke="#475569" d="M285.24,-661.34C264.5,-634.99 236.75,-599.74 214.82,-571.89"/>
<polygon fill="#475569" stroke="#475569" points="217.18,-570.35 210.03,-565.8 212.78,-573.81 217.18,-570.35"/>
<text xml:space="preserve" text-anchor="middle" x="283.41" y="-609.17" font-family="Arial" font-size="11.00" fill="#334155">zapożyczenie</text>
</g>
<!-- none -->
<g id="node10" class="node">
<title>none</title>
<path fill="#e2e8f0" stroke="#334155" d="M560.42,-564.12C560.42,-564.12 341.75,-564.12 341.75,-564.12 335.75,-564.12 329.75,-558.12 329.75,-552.12 329.75,-552.12 329.75,-498.84 329.75,-498.84 329.75,-492.84 335.75,-486.84 341.75,-486.84 341.75,-486.84 560.42,-486.84 560.42,-486.84 566.42,-486.84 572.42,-492.84 572.42,-498.84 572.42,-498.84 572.42,-552.12 572.42,-552.12 572.42,-558.12 566.42,-564.12 560.42,-564.12"/>
<text xml:space="preserve" text-anchor="middle" x="451.09" y="-543.13" font-family="Arial" font-size="13.00" fill="#0f172a">Jeśli podobieństwo wynika tylko</text>
<text xml:space="preserve" text-anchor="middle" x="451.09" y="-528.13" font-family="Arial" font-size="13.00" fill="#0f172a">ze wspólnego źródła, np. Biblii,</text>
<text xml:space="preserve" text-anchor="middle" x="451.09" y="-513.13" font-family="Arial" font-size="13.00" fill="#0f172a">aplikacja nie zapisuje zapożyczenia,</text>
<text xml:space="preserve" text-anchor="middle" x="451.09" y="-498.13" font-family="Arial" font-size="13.00" fill="#0f172a">ale zachowuje uzasadnienie w logu</text>
</g>
<!-- llm&#45;&gt;none -->
<g id="edge6" class="edge">
<title>llm&#45;&gt;none</title>
<path fill="none" stroke="#475569" d="M344.93,-661.34C365.67,-634.99 393.42,-599.74 415.35,-571.89"/>
<polygon fill="#475569" stroke="#475569" points="417.39,-573.81 420.14,-565.8 412.99,-570.35 417.39,-573.81"/>
<text xml:space="preserve" text-anchor="middle" x="431.41" y="-609.17" font-family="Arial" font-size="11.00" fill="#334155">brak zapożyczenia</text>
</g>
<!-- save -->
<g id="node7" class="node">
<title>save</title>
<path fill="#dcfce7" stroke="#334155" d="M276.05,-401.84C276.05,-401.84 82.13,-401.84 82.13,-401.84 76.13,-401.84 70.13,-395.84 70.13,-389.84 70.13,-389.84 70.13,-336.56 70.13,-336.56 70.13,-330.56 76.13,-324.56 82.13,-324.56 82.13,-324.56 276.05,-324.56 276.05,-324.56 282.05,-324.56 288.05,-330.56 288.05,-336.56 288.05,-336.56 288.05,-389.84 288.05,-389.84 288.05,-395.84 282.05,-401.84 276.05,-401.84"/>
<text xml:space="preserve" text-anchor="middle" x="179.09" y="-380.85" font-family="Arial" font-size="13.00" fill="#0f172a">6. Wyniki są zapisywane</text>
<text xml:space="preserve" text-anchor="middle" x="179.09" y="-365.85" font-family="Arial" font-size="13.00" fill="#0f172a">razem z uzasadnieniem modelu,</text>
<text xml:space="preserve" text-anchor="middle" x="179.09" y="-350.85" font-family="Arial" font-size="13.00" fill="#0f172a">fragmentem badanego tekstu</text>
<text xml:space="preserve" text-anchor="middle" x="179.09" y="-335.85" font-family="Arial" font-size="13.00" fill="#0f172a">i fragmentami źródłowymi</text>
</g>
<!-- classify&#45;&gt;save -->
<g id="edge7" class="edge">
<title>classify&#45;&gt;save</title>
<path fill="none" stroke="#475569" d="M179.09,-486.5C179.09,-464.02 179.09,-435.36 179.09,-411.44"/>
<polygon fill="#475569" stroke="#475569" points="181.89,-411.7 179.09,-403.7 176.29,-411.7 181.89,-411.7"/>
</g>
<!-- view -->
<g id="node8" class="node">
<title>view</title>
<path fill="#e0f2fe" stroke="#334155" d="M346.17,-239.56C346.17,-239.56 12,-239.56 12,-239.56 6,-239.56 0,-233.56 0,-227.56 0,-227.56 0,-174.28 0,-174.28 0,-168.28 6,-162.28 12,-162.28 12,-162.28 346.17,-162.28 346.17,-162.28 352.17,-162.28 358.17,-168.28 358.17,-174.28 358.17,-174.28 358.17,-227.56 358.17,-227.56 358.17,-233.56 352.17,-239.56 346.17,-239.56"/>
<text xml:space="preserve" text-anchor="middle" x="179.09" y="-218.57" font-family="Arial" font-size="13.00" fill="#0f172a">7. Po analizie rozpoznane jako zapożyczenia fragmenty</text>
<text xml:space="preserve" text-anchor="middle" x="179.09" y="-203.57" font-family="Arial" font-size="13.00" fill="#0f172a">są oznaczone kolorami w tekście,</text>
<text xml:space="preserve" text-anchor="middle" x="179.09" y="-188.57" font-family="Arial" font-size="13.00" fill="#0f172a">aplikacja wyświetla też szczegóły zapożyczeń,</text>
<text xml:space="preserve" text-anchor="middle" x="179.09" y="-173.57" font-family="Arial" font-size="13.00" fill="#0f172a">log analizy i koszt</text>
</g>
<!-- save&#45;&gt;view -->
<g id="edge8" class="edge">
<title>save&#45;&gt;view</title>
<path fill="none" stroke="#475569" d="M179.09,-324.22C179.09,-301.74 179.09,-273.08 179.09,-249.16"/>
<polygon fill="#475569" stroke="#475569" points="181.89,-249.42 179.09,-241.42 176.29,-249.42 181.89,-249.42"/>
</g>
<!-- export -->
<g id="node9" class="node">
<title>export</title>
<path fill="#f1f5f9" stroke="#334155" d="M291.8,-77.28C291.8,-77.28 66.38,-77.28 66.38,-77.28 60.38,-77.28 54.38,-71.28 54.38,-65.28 54.38,-65.28 54.38,-12 54.38,-12 54.38,-6 60.38,0 66.38,0 66.38,0 291.8,0 291.8,0 297.8,0 303.8,-6 303.8,-12 303.8,-12 303.8,-65.28 303.8,-65.28 303.8,-71.28 297.8,-77.28 291.8,-77.28"/>
<text xml:space="preserve" text-anchor="middle" x="179.09" y="-56.29" font-family="Arial" font-size="13.00" fill="#0f172a">8. Wynik można wyeksportować</text>
<text xml:space="preserve" text-anchor="middle" x="179.09" y="-41.29" font-family="Arial" font-size="13.00" fill="#0f172a">do pliku DOCX:</text>
<text xml:space="preserve" text-anchor="middle" x="179.09" y="-26.29" font-family="Arial" font-size="13.00" fill="#0f172a">w 2 wariantach: tekst z komentarzami</text>
<text xml:space="preserve" text-anchor="middle" x="179.09" y="-11.29" font-family="Arial" font-size="13.00" fill="#0f172a">albo lista zapożyczeń</text>
</g>
<!-- view&#45;&gt;export -->
<g id="edge9" class="edge">
<title>view&#45;&gt;export</title>
<path fill="none" stroke="#475569" d="M179.09,-161.94C179.09,-139.46 179.09,-110.8 179.09,-86.88"/>
<polygon fill="#475569" stroke="#475569" points="181.89,-87.14 179.09,-79.14 176.29,-87.14 181.89,-87.14"/>
</g>
</g>
</svg>
